<svg width="254" height="128" viewBox="0 0 254 128" fill="none" xmlns="http://www.w3.org/2000/svg">
<path d="M193.581 1.08887C201.853 1.08887 209.211 1.81396 215.656 3.26416C222.155 4.71436 227.634 6.72852 232.092 9.30664C236.604 11.8848 240.041 15 242.404 18.6523C244.768 22.251 245.949 26.2256 245.949 30.5762V42.3389C245.949 46.958 245.036 50.6909 243.21 53.5376C241.438 56.3843 238.967 58.667 235.798 60.3857C238.43 61.1377 240.847 62.1045 243.049 63.2861C245.305 64.4678 247.211 65.918 248.769 67.6367C250.38 69.3018 251.616 71.2622 252.475 73.5181C253.388 75.7202 253.845 78.2715 253.845 81.1719V96.9629C253.845 101.313 252.26 105.315 249.091 108.967C245.922 112.566 241.599 115.681 236.12 118.313C230.642 120.945 224.25 122.986 216.945 124.436C209.641 125.886 201.853 126.611 193.581 126.611C188.962 126.611 184.235 126.423 179.401 126.047C174.567 125.725 169.868 125.269 165.302 124.678C160.791 124.087 156.547 123.416 152.573 122.664C148.598 121.912 145.188 121.133 142.341 120.327V7.21191C145.188 6.40625 148.598 5.6543 152.573 4.95605C156.547 4.2041 160.791 3.55957 165.302 3.02246C169.868 2.43164 174.567 1.9751 179.401 1.65283C184.235 1.27686 188.962 1.08887 193.581 1.08887ZM192.937 71.5039C190.036 71.5039 187.136 71.5308 184.235 71.5845C181.335 71.5845 178.515 71.665 175.776 71.8262C173.09 71.9336 170.512 72.1216 168.042 72.3901C165.571 72.6587 163.342 73.0078 161.354 73.4375V104.053C162.429 104.429 163.798 104.858 165.463 105.342C167.182 105.825 169.331 106.282 171.909 106.711C174.487 107.141 177.575 107.517 181.174 107.839C184.772 108.108 189.016 108.242 193.903 108.242C199.919 108.242 205.317 107.759 210.097 106.792C214.931 105.825 218.986 104.536 222.263 102.925C225.593 101.313 228.144 99.4604 229.917 97.3657C231.689 95.2173 232.575 92.9883 232.575 90.6787V83.75C232.575 81.2256 231.447 79.1577 229.191 77.5464C226.936 75.9351 223.955 74.6997 220.249 73.8403C216.542 72.9272 212.299 72.3096 207.519 71.9873C202.792 71.665 197.932 71.5039 192.937 71.5039ZM161.354 51.5234C164.685 52.168 168.471 52.5977 172.714 52.8125C177.011 53.0273 181.872 53.1348 187.297 53.1348C191.97 53.1348 196.616 52.9736 201.235 52.6514C205.854 52.2754 210.017 51.6846 213.723 50.8789C217.429 50.0195 220.437 48.8916 222.746 47.4951C225.056 46.0449 226.237 44.2188 226.291 42.0166V36.8604C226.291 34.5508 225.727 32.3486 224.599 30.2539C223.525 28.1055 221.699 26.2256 219.121 24.6143C216.596 23.0029 213.266 21.7139 209.13 20.7471C204.995 19.7803 199.919 19.2969 193.903 19.2969C189.016 19.2969 184.772 19.458 181.174 19.7803C177.575 20.0488 174.487 20.3979 171.909 20.8276C169.331 21.2573 167.182 21.7139 165.463 22.1973C163.798 22.6807 162.429 23.1104 161.354 23.4863V51.5234Z" fill="#3A79C6"/>
<path d="M60.2539 0.283203C65.625 0.283203 70.835 0.605469 75.8838 1.25C80.9326 1.89453 85.6592 2.83447 90.0635 4.06982C94.4678 5.25146 98.4961 6.70166 102.148 8.42041C105.801 10.0854 108.916 11.9922 111.494 14.1406C114.072 16.2891 116.086 18.6523 117.537 21.2305C118.987 23.7549 119.712 26.4404 119.712 29.2871V98.4131C119.712 101.26 118.987 103.972 117.537 106.55C116.086 109.075 114.072 111.411 111.494 113.56C108.916 115.708 105.801 117.642 102.148 119.36C98.4961 121.025 94.4678 122.476 90.0635 123.711C85.6592 124.893 80.9326 125.806 75.8838 126.45C70.835 127.095 65.625 127.417 60.2539 127.417C54.8828 127.417 49.6729 127.095 44.624 126.45C39.6289 125.806 34.9292 124.893 30.5249 123.711C26.1743 122.476 22.1729 121.025 18.5205 119.36C14.8682 117.642 11.7261 115.708 9.09424 113.56C6.51611 111.411 4.50195 109.075 3.05176 106.55C1.65527 103.972 0.957031 101.26 0.957031 98.4131V29.2871C0.957031 26.4404 1.65527 23.7549 3.05176 21.2305C4.50195 18.6523 6.51611 16.2891 9.09424 14.1406C11.7261 11.9922 14.8682 10.0854 18.5205 8.42041C22.1729 6.70166 26.1743 5.25146 30.5249 4.06982C34.9292 2.83447 39.6289 1.89453 44.624 1.25C49.6729 0.605469 54.8828 0.283203 60.2539 0.283203ZM98.6035 35.4102C98.6035 33.1006 97.7173 30.9253 95.9448 28.8843C94.1724 26.7896 91.6211 24.9634 88.291 23.4058C85.0146 21.7944 81.0132 20.5322 76.2866 19.6191C71.5601 18.6523 66.2158 18.1689 60.2539 18.1689C54.5068 18.1689 49.2969 18.6255 44.624 19.5386C39.9512 20.3979 35.9229 21.6064 32.5391 23.1641C29.209 24.7217 26.6309 26.5479 24.8047 28.6426C22.9785 30.7373 22.0654 32.9932 22.0654 35.4102V92.29C22.0654 94.6533 22.9785 96.8823 24.8047 98.9771C26.6309 101.072 29.209 102.898 32.5391 104.456C35.9229 106.013 39.9512 107.249 44.624 108.162C49.2969 109.075 54.5068 109.531 60.2539 109.531C66.2158 109.531 71.5601 109.075 76.2866 108.162C81.0132 107.195 85.0146 105.906 88.291 104.294C91.6211 102.683 94.1724 100.857 95.9448 98.8159C97.7173 96.7212 98.6035 94.5459 98.6035 92.29V35.4102Z" fill="#78C2ED"/>
<path d="M129.477 2.37793C137.802 2.37793 146.583 2.67334 155.822 3.26416C165.06 3.85498 174.755 5.00977 184.906 6.72852V72.1484H94.3496V104.536C97.8945 105.02 101.815 105.449 106.112 105.825C110.409 106.201 115.082 106.47 120.131 106.631C121.742 106.738 123.327 106.792 124.884 106.792C126.442 106.792 128.026 106.792 129.638 106.792C131.249 106.792 132.86 106.792 134.472 106.792C136.083 106.792 137.694 106.738 139.306 106.631C144.408 106.47 149.054 106.201 153.244 105.825C157.487 105.449 161.381 105.02 164.926 104.536V89.2285H184.906V120.649C174.755 122.368 165.087 123.523 155.902 124.114C146.718 124.705 138.07 125 129.96 125C121.635 125 112.826 124.705 103.534 124.114C94.2422 123.523 84.5742 122.368 74.5303 120.649V52.3291H164.926V23.0029C162.67 22.627 160.092 22.3047 157.191 22.0361C154.291 21.7139 151.256 21.4453 148.087 21.2305C144.972 21.0156 141.803 20.8545 138.581 20.7471C135.412 20.6396 132.431 20.5859 129.638 20.5859C124.696 20.5859 120.399 20.6665 116.747 20.8276C113.148 20.9888 109.979 21.2036 107.24 21.4722C104.501 21.687 102.111 21.9556 100.07 22.2778C98.0288 22.5464 96.1221 22.7881 94.3496 23.0029V35.249H74.5303V6.72852C84.5742 5.00977 94.2153 3.85498 103.454 3.26416C112.692 2.67334 121.366 2.37793 129.477 2.37793Z" fill="black"/>
</svg>
